inDegrees=no
num_controls=7
num_derivatives=13
num_iterations=157
num_multipliers=7
num_parameters=0
num_slacks=7
num_states=26
objective=6.080884
objective_accelerations=0.626706
objective_balance=0.068856
objective_effort=0.511394
objective_height=4.850435
objective_ligament=0.023493
solver_duration=1634.264438
status=Solve_Succeeded
success=true
DataType=double
version=3
OpenSimVersion=4.4-2022-07-23-0e9fedc
endheader
time	/jointset/ground_pelvis/pelvis_tilt/value	/jointset/ground_pelvis/pelvis_tx/value	/jointset/ground_pelvis/pelvis_ty/value	/jointset/hip_l/hip_flexion_l/value	/jointset/hip_l/hip_adduction_l/value	/jointset/hip_l/hip_rotation_l/value	/jointset/back/lumbar_extension/value	/jointset/patellofemoral_l/patellar_flexion_l/value	/jointset/knee_l/knee_flexion_l/value	/jointset/knee_l/knee_adduction_l/value	/jointset/knee_l/knee_rotation_l/value	/jointset/ankle_l/ankle_angle_l/value	/jointset/subtalar_l/subtalar_angle_l/value	/jointset/ground_pelvis/pelvis_tilt/speed	/jointset/ground_pelvis/pelvis_tx/speed	/jointset/ground_pelvis/pelvis_ty/speed	/jointset/hip_l/hip_flexion_l/speed	/jointset/hip_l/hip_adduction_l/speed	/jointset/hip_l/hip_rotation_l/speed	/jointset/back/lumbar_extension/speed	/jointset/patellofemoral_l/patellar_flexion_l/speed	/jointset/knee_l/knee_flexion_l/speed	/jointset/knee_l/knee_adduction_l/speed	/jointset/knee_l/knee_rotation_l/speed	/jointset/ankle_l/ankle_angle_l/speed	/jointset/subtalar_l/subtalar_angle_l/speed	/forceset/tau_hip_flexion_l	/forceset/tau_hip_adduction_l	/forceset/tau_hip_rotation_l	/forceset/tau_knee_flexion_l	/forceset/tau_ankle_angle_l	/forceset/tau_subtalar_angle_l	/forceset/tau_lumbar_extension	lambda_cid13_p0	lambda_cid13_p1	lambda_cid13_p2	lambda_cid13_p3	lambda_cid13_p4	lambda_cid13_p5	lambda_cid14_p0	/jointset/ground_pelvis/pelvis_tilt/accel	/jointset/ground_pelvis/pelvis_tx/accel	/jointset/ground_pelvis/pelvis_ty/accel	/jointset/hip_l/hip_flexion_l/accel	/jointset/hip_l/hip_adduction_l/accel	/jointset/hip_l/hip_rotation_l/accel	/jointset/back/lumbar_extension/accel	/jointset/patellofemoral_l/patellar_flexion_l/accel	/jointset/knee_l/knee_flexion_l/accel	/jointset/knee_l/knee_adduction_l/accel	/jointset/knee_l/knee_rotation_l/accel	/jointset/ankle_l/ankle_angle_l/accel	/jointset/subtalar_l/subtalar_angle_l/accel	gamma_cid13_p0	gamma_cid13_p1	gamma_cid13_p2	gamma_cid13_p3	gamma_cid13_p4	gamma_cid13_p5	gamma_cid14_p0
0	-0.03682270158880725	0.0566775766688306	0.920341590253116	0.3085811930696054	-0.2956404692894711	-0.3016071240150212	-0.3879500408040475	0.249927658227084	0.249927658227084	-0.1745329251994329	-0.1745328221519233	-0.0008036543073733089	0.0004376088991334295	0	0	0	0	0	0	0	0	0	0	0	0	0	0.0915802862492156	-0.06254879017932569	-0.02464246907897174	-0.2813993482602651	0.2501842857409473	-0.02234302451670149	-0.009044130771140885	36.92200585084751	1.122094110279801	1.784587155520833	-7.324018531590484	-620.6225448244182	-74.23911955479433	-23.19695864066243	-1.03601291789807	-1.801086572632446	-0.9447806732570067	9.529962478705601	-0.8295467123029381	3.559113780583508	-7.317161485845965	10.21848846805235	10.21848846805057	1.571062773500366	-0.08298678046447741	2.366020043836339	-0.0851909146627699	-4.289566533976116e-09	1.862439470609738e-07	7.610203169977517e-08	-3.996835223728872e-09	1.16876817270426e-07	-1.148224637137437e-08	6.571322463355809e-09
0.01	-0.03687046108927137	0.05658892694404889	0.9202954367971888	0.309045347181944	-0.2956819772430623	-0.3014280139208916	-0.3883142856824335	0.2504283160186615	0.250428316018648	-0.174458160940994	-0.1745327334730158	-0.0006878570773668719	0.0004324368153024055	-0.009485578003189157	-0.01760717330724583	-0.009191979108527783	0.09232126819329338	-0.008249209152833134	0.03565295541586536	-0.07232134393806616	0.09965106296665019	0.09965106296664748	0.01488818128702177	3.185600346698659e-05	0.02310012163694112	-0.0009992330519759843	0.08454193314846503	-0.0727894190908031	-0.02356397481295453	-0.2746957757792107	0.238404698913784	-0.007606991150745178	-0.002685957043305379	33.56674728289495	-4.630618071590527	2.633573861742078	-6.899441955019807	-623.5407631001704	-85.75091793392231	-23.20268083834604	-0.8948912994258226	-1.722117761859168	-0.9005763427534557	9.006768524606983	-0.8147942318619851	3.543025384538375	-7.110476086856199	9.766339593995378	9.766339593995943	1.437861708403888	0.0483961192954658	2.273113861180702	-0.1020503656374279	-3.867363540423044e-08	1.847245555912565e-07	1.690324485490967e-07	2.984729738061161e-08	-2.21974923518706e-08	-7.703755505505487e-08	-2.792679676181103e-09
0.02	-0.03701108858135033	0.05632788847577658	0.9201585295875561	0.3104174258832325	-0.2958044145312086	-0.3008974464801323	-0.3893859150480116	0.2519110693165359	0.2519110693165342	-0.1742364758764109	-0.1745319013684565	-0.0003428375034815419	0.0004183202279171436	-0.01857359832228172	-0.03447774869811814	-0.01815075074113029	0.1815849177851744	-0.01618586690924072	0.07029146932975017	-0.1414768974388967	0.196419101254265	0.1964191012542677	0.02938299865808762	0.0001486851486561479	0.04584446877619367	-0.001788900710845494	0.07750358004802886	-0.08303004800217838	-0.02248548054708802	-0.2679922032979027	0.2266251120867391	0.007129042215359958	0.003672216684657067	30.29069575514324	-10.39639484167232	3.483725974403356	-6.625176666672306	-625.2935171356377	-97.16294717927458	-23.21945616010658	-0.9565013810787124	-1.653766989357774	-0.8981391780719508	8.918438758423122	-0.7670364330178375	3.356225480187381	-6.684003398398799	9.641883532245267	9.641883532245124	1.492389990309161	-0.06599215212006285	2.294865144298583	-0.04327783604149965	-7.305770427448476e-08	1.832051641215392e-07	2.619628653984183e-07	6.36914299849521e-08	-1.612718019741672e-07	-1.425928637387354e-07	-1.215668181571802e-08
0.03	-0.03724088393333659	0.05590159780727725	0.9199328991413953	0.3126678169304438	-0.2960044779149485	-0.3000264380696194	-0.3911335650544271	0.2543475945473195	0.2543475945473247	-0.1738715636566745	-0.174530323026534	0.0002276338974881653	0.0003974643268677793	-0.02732393992537444	-0.05068051052823257	-0.02696233583334468	0.2680473525986591	-0.02376342751691255	0.1037312651639324	-0.2075805357409426	0.2904387126990948	0.290438712699099	0.04353516017588955	0.0001724311857559064	0.0681673656458384	-0.002344595237691818	0.07000703435676994	-0.07409202125848707	-0.02146145473685284	-0.2606959750094679	0.2195289756425234	0.003784788765879411	0.01003166538310008	27.83111876379554	-8.627026593364494	3.331507090944375	-5.666938280802444	-626.7149963586495	-92.48645188447625	-23.24651143545187	-0.8250779366932245	-1.588536733864578	-0.8707505924257668	8.443243710836716	-0.7436744224771404	3.310983652781766	-6.502658830528998	9.214917589374254	9.214917589374448	1.367045465976067	0.03741411619769823	2.188636232977621	-0.05612158743858862	-9.717733616524309e-08	1.586026255672221e-07	3.380310007737548e-07	8.379900263135734e-08	-2.593913582500291e-07	-2.003000958800594e-07	-2.201578936946875e-08
0.04	-0.03755633817870722	0.05531627832967152	0.9196195363607864	0.3157694518993919	-0.2962784286143291	-0.2988264062972099	-0.3935280744007471	0.2577108994203007	0.257710899420302	-0.1733670465750559	-0.1745283359973215	0.001018861122090538	0.0003721702152634875	-0.03570537699919296	-0.0662835105193995	-0.0356972176307853	0.3518337021331735	-0.03096333003798382	0.136096141708036	-0.2708487654198433	0.3817750296948172	0.3817750296948185	0.05730397103209461	0.000230422605762903	0.08999563350268992	-0.002676542821838004	0.06251048866544387	-0.06515399451483873	-0.02043742892657857	-0.2533997467210996	0.2124328391982696	0.0004405353163409404	0.01639111408153277	25.44516140225897	-6.866321713727118	3.175842007903251	-4.854748173491811	-627.0659174624482	-87.71101107594518	-23.28287732083771	-0.8827204752238249	-1.533814621568303	-0.8827985191171978	8.383221702629029	-0.6915048156977454	3.141241622171573	-6.116921673769705	9.105224642423805	9.105224642422803	1.41571985798976	-0.05914307553871933	2.195939341739897	0.001471552498495686	-1.210853301801355e-07	1.33524145835903e-07	4.137514602424113e-07	1.036233472373928e-07	-3.566664866218409e-07	-2.578455120102008e-07	-3.188510528227544e-08
0.05	-0.0379540780763177	0.05457819209429409	0.9192190203032192	0.3196957693935278	-0.2966223760040919	-0.297308782537589	-0.3965407634297431	0.2619743962666164	0.2619743962666161	-0.1727266704911704	-0.1745262095746268	0.002026233159246566	0.0003449094714786091	-0.0437824748389558	-0.08120673539690634	-0.04440575510098593	0.4329533685699923	-0.03775304647857686	0.1672310598314212	-0.3312177473491083	0.4704703721591608	0.47047037215911	0.07070144006053995	0.0001956847873764668	0.1114228367241879	-0.002719081086463104	0.05564467691278355	-0.06363970555549811	-0.01953523774321185	-0.248442031575284	0.2063334629355733	0.003195769294623061	0.02242561879129572	23.60240182818866	-7.765989336114384	3.348655630977704	-4.843253706986534	-627.6896168703395	-88.64687520631107	-23.32733398167042	-0.7611907931815811	-1.452505362174267	-0.8649176630818139	7.904861201602793	-0.6618176154452692	3.069927488538889	-5.926192497884929	8.68360039377975	8.683600393772457	1.291355031639309	0.02455156414293144	2.107718897718308	0.001293888632206238	-1.368344562673423e-07	7.328757409403908e-08	4.582474840320814e-07	1.149438419740407e-07	-4.315016152173356e-07	-3.011338512101917e-07	-4.182858354584953e-08
0.06	-0.03843078622329442	0.05369468782187498	0.9187314116105276	0.3244189879695157	-0.2970320430697031	-0.2954857474805134	-0.4001430034871079	0.2671112288066482	0.2671112288066478	-0.1719544007957336	-0.1745243923902722	0.003246198845690074	0.0003189054259625353	-0.05149902687187962	-0.0953671179277342	-0.05311574465567453	0.5112139185025785	-0.04410726520738358	0.197178401199483	-0.3887589710935691	0.5564421684371063	0.5564421684370049	0.08368269334368061	0.0001685749342508831	0.1325143633602291	-0.00242520316807934	0.04877886516018638	-0.0621254165961372	-0.01863304655987712	-0.2434843164294279	0.200234086672895	0.005951003272932942	0.02846012350109197	21.82521386062591	-8.676037317587632	3.521867366881373	-4.971530815475937	-627.3600323947054	-89.49917307910709	-23.37849261886747	-0.8106113138559591	-1.381246152232532	-0.8830889360147974	7.811398401782492	-0.6044052733404945	2.90372627110685	-5.551370036808795	8.560515405144194	8.560515405143489	1.332476708928798	-0.05761748248662092	2.128804024648513	0.06875478910023984	-1.522400510733834e-07	1.15706616359417e-08	5.014287947405309e-07	1.259062798740828e-07	-5.053919017169852e-07	-3.438218924341762e-07	-5.177518443471908e-08
0.07000000000000001	-0.03898324808205588	0.05267333586499351	0.9181564919243214	0.3299113575274303	-0.2975030251364021	-0.2933696842620128	-0.4043063685794693	0.273094671316925	0.2730946713169277	-0.1710542853433724	-0.1745233927516509	0.004675426872901908	0.0002975842456865644	-0.05893973170372289	-0.1087806164055087	-0.06188206343236913	0.5868049896898966	-0.05001557239349325	0.2258450412140451	-0.4434630573721126	0.6397974633742813	0.639797463374244	0.09625526303669932	4.274715681616666e-05	0.1532644463065054	-0.001786103979132267	0.04175997733191564	-0.05856112174633505	-0.01773312220464311	-0.2388977216937367	0.1948185814025674	0.006729768398723957	0.03452476571356178	20.17358517605141	-8.762944584332976	3.57898803421085	-4.924188775535661	-627.2099933513681	-88.5953032945054	-23.43477263982173	-0.7027599188578662	-1.302977825027241	-0.875585949536147	7.364697983197547	-0.5730764443549298	2.819676137697849	-5.362279422313757	8.155716477072575	8.155716477082636	1.206929209221151	0.01173054025642321	2.038086050365584	0.06936832831666344	-1.631105050392495e-07	-6.434684976307832e-08	5.363956864617164e-07	1.293597059200489e-07	-5.538295247266461e-07	-3.830947352669738e-07	-6.260726616641639e-08
0.08	-0.0396085089593395	0.05152153369743879	0.9174934725301399	0.3361459850984159	-0.2980308968755833	-0.2909726459891521	-0.4090032448344038	0.2798982027643824	0.2798982027643895	-0.1700309877721318	-0.1745232921976731	0.006310150853726074	0.0002842302262050252	-0.06605883057592557	-0.1214571600623826	-0.07073568625071089	0.6596655211168575	-0.05548519970394777	0.2533734120712849	-0.4954612036081169	0.7204599558741888	0.720459955874219	0.1083191171190223	-1.124199548430853e-05	0.173613554082717	-0.0008317710091980909	0.03474108950363308	-0.05499682689654575	-0.01683319784936715	-0.2343111269580709	0.1894030761322263	0.007508533524496585	0.04058940792603838	18.58037438370495	-8.857689268020355	3.634627496409203	-5.008147836717597	-626.2187886489642	-87.61522309791934	-23.49446209326533	-0.7462901219277714	-1.233855188052435	-0.9005497443442296	7.265290449711028	-0.5166692982094768	2.676072439642373	-5.010182028300908	8.02195491769065	8.021954917690611	1.230733586789641	-0.04324975745981184	2.048608990635529	0.1318015452976366	-1.736883692734914e-07	-1.411805288357061e-07	5.708326156675945e-07	1.323286795883326e-07	-6.006250404143721e-07	-4.221472427196948e-07	-7.349647569442515e-08
0.09	-0.04030363103710251	0.05024666441196053	0.9167413414008212	0.3430961833640357	-0.2986111985350179	-0.2883065442665801	-0.4142064442466514	0.2874954017827195	0.2874954017827131	-0.1688893527858683	-0.174523980650155	0.00814651773730537	0.0002821311641463085	-0.07290682799645336	-0.1333911162365803	-0.07971189179170599	0.7299164994964189	-0.0604960500188504	0.2796532139075604	-0.5447504545607194	0.7985337528155158	0.7985337528155341	0.1199253946626095	-0.0001147989372870761	0.1935945672718286	0.000471370433435562	0.02771315610788468	-0.05195762134229057	-0.01597132121000518	-0.2304802486672955	0.1845187007340324	0.008614039266658043	0.04666585235024131	17.14358302361749	-9.111197842865472	3.703552812081086	-5.135368009174022	-625.5939365739592	-86.99008090126534	-23.55570208578841	-0.6452398843627623	-1.154302198948292	-0.8994796670796845	6.836344888842588	-0.4814857106600223	2.574781143057352	-4.824062986576959	7.633192711126367	7.633192711124621	1.113233914133883	0.007942936232192553	1.963050342785085	0.1384402671464652	-1.798660705033157e-07	-2.414032288098227e-07	5.889034564090698e-07	1.284086031725679e-07	-6.287494475517008e-07	-4.546768870044291e-07	-8.534506520641362e-08
